<svg fill="none" xmlns="http://www.w3.org/2000/svg" viewBox="0 0 24 24">
    <linearGradient id="gradient" x1="0%" y1="0%" x2="0%" y2="100%">
      <stop offset="0%" style="stop-color:#FF29A2; stop-opacity:1" />
      <stop offset="100%" style="stop-color:#991961; stop-opacity:1" />
    </linearGradient>
    <path d="M13 1h-2v2H9v2H7v2H2v16h20V7h-5V5h-2V3h-2V1zm2 6H9V5h2V3h2v2h2v2zM4 9h16v12H4V9zm10 6v-2h-2v2h-2v2H8v2h2v-2h2v-2h2zm2 2v-2h-2v2h2zm0 0v2h2v-2h-2zM6 13v-2h2v2H6z" fill="url(#gradient)"/>
</svg>
