<svg fill="none" xmlns="http://www.w3.org/2000/svg" viewBox="0 0 24 24">
    <linearGradient id="gradient" x1="0%" y1="0%" x2="0%" y2="100%">
      <stop offset="0%" style="stop-color:#FF29A2; stop-opacity:1" />
      <stop offset="100%" style="stop-color:#991961; stop-opacity:1" />
    </linearGradient>
    <path d="M3 3h18v18H3V3zm2 2v2h2V5H5zm4 0v6h6V5H9zm8 0v2h2V5h-2zm2 4h-2v2h2V9zm0 4h-2v2h2v-2zm0 4h-2v2h2v-2zm-4 2v-6H9v6h6zm-8 0v-2H5v2h2zm-2-4h2v-2H5v2zm0-4h2V9H5v2z" fill="url(#gradient)"/>
</svg>
